<svg xmlns="http://www.w3.org/2000/svg" xmlns:xlink="http://www.w3.org/1999/xlink" style="vertical-align:-2.63ex" width="40.39ex" height="11.009ex" viewBox="0 -3607.9 17390.1 4740.1"><defs><path id="k" stroke-width="1" d="M109 429q-27 0-43 18t-16 44q0 71 53 123t132 52q91 0 152-56t62-145q0-43-20-82t-48-68-80-74q-36-31-100-92l-59-56 76-1q157 0 167 5 7 2 24 89v3h40v-3q-1-3-13-91T421 3V0H50v31q0 7 6 15t30 35q29 32 50 56 9 10 34 37t34 37 29 33 28 34 23 30 21 32 15 29 13 32 7 30 3 33q0 63-34 109t-97 46q-33 0-58-17t-35-33-10-19q0-1 5-1 18 0 37-14t19-46q0-25-16-42t-45-18z"/><path id="a" stroke-width="1" d="M399-80q0 33 1 50t2 19v4l-15-4q-46-11-84-11-95 0-165 57T51 201q-1 8-1 43 0 102 48 194t129 163q124 103 249 103 38 0 48-1 97-14 156-86t60-182q0-180-148-328-63-60-131-91l-17-8V3q0-1 5-27t21-42 46-16q35 0 67 22t42 57q6 14 13 14 9 0 11-9 0-8-10-36t-28-66-54-65-76-29q-82 0-82 107v7zm237 548q0 55-15 96t-41 61-50 30-53 10q-48 0-98-25-102-49-164-176t-62-248q0-106 54-157 24-21 29-21v8q0 40 33 74t78 35q25 0 43-11t27-30 12-32 6-27l13 9q64 44 109 121t62 149 17 134zM314 18q48 0 90 21l-1 10q-4 55-37 66-12 2-19 2h-6q-3 0-4 1-20 0-41-20t-22-46q0-34 40-34z"/><path id="c" stroke-width="1" d="M56 347q0 13 14 20h637q15-8 15-20 0-11-14-19l-318-1H72q-16 5-16 20zm0-194q0 15 16 20h636q14-10 14-20 0-13-15-20H70q-14 7-14 20z"/><path id="g" stroke-width="1" d="M60 948q3 2 605 2h602l58-135q59-138 63-146h-40l-7 14q-21 41-56 78-50 48-111 77t-141 43-151 17-183 4H251l8-11q463-633 465-639 1-2 0-6-3-3-264-302L196-356q0-1 211-1h141q89 0 128-1 136 0 220 5t167 21 141 49 103 87q21 26 41 72h40q0-1-7-21t-25-65-31-84l-58-155-601-1q-602 0-605 2-6 2-6 9 0 2 2 6l533 610q0 1-33 45T452 366 322 544L56 909l-1 15q0 21 5 24z"/><path id="h" stroke-width="1" d="M184 600q0 24 19 42t44 19q18 0 30-12t13-30q0-23-20-42t-44-20q-15 0-28 10t-14 33zM21 287q0 8 9 31t24 51 44 51 60 22q39 0 65-23t27-62q0-17-14-56t-40-105-42-113q-5-22-5-32 0-25 17-25 9 0 19 3t23 14 27 35 25 59q3 12 5 14t17 2q20 0 20-10 0-8-9-31t-25-51-45-50-62-22q-32 0-59 21T74 74q0 17 5 32t43 114q38 101 44 121t7 39q0 24-17 24h-2q-30 0-55-33t-38-84q-1-1-2-3t-1-3-2-2-3-1-4 0-8 0H27q-6 6-6 9z"/><path id="i" stroke-width="1" d="M213 578l-13-5q-14-5-40-10t-58-7H83v46h19q47 2 87 15t56 24 28 22q2 3 12 3 9 0 17-6V361l1-300q7-7 12-9t24-4 62-2h26V0h-11q-21 3-159 3-136 0-157-3H88v46h64q16 0 25 1t16 3 8 2 6 5 6 4v517z"/><path id="j" stroke-width="1" d="M52 289q7 42 54 97t116 56q35 0 64-18t43-45q42 63 101 63 37 0 64-22t28-59q0-29-14-47t-27-22-23-4q-19 0-31 11t-12 29q0 46 50 63-11 13-40 13-13 0-19-2-38-16-56-66-60-221-60-258 0-28 16-40t35-12q37 0 73 33t49 81q3 10 6 11t16 2h4q15 0 15-8 0-1-2-11-16-57-62-101T333-11q-70 0-106 63-41-62-94-62h-6q-49 0-70 26T35 71q0 32 19 52t45 20q43 0 43-42 0-20-12-35t-23-20-13-5l-3-1q0-1 6-4t16-7 19-3q36 0 62 45 9 16 23 68t28 108 16 66q5 27 5 39 0 28-15 40t-34 12q-40 0-75-32t-49-82q-2-9-5-10t-16-2H58q-6 6-6 11z"/><path id="b" stroke-width="1" d="M21 287q1 6 3 16t12 38 20 47 33 37 46 17q36 0 60-18t30-34 6-21q0-2 1-2l11 11q61 64 139 64 54 0 87-27t34-79-38-157-38-127q0-26 17-26 6 0 9 1 29 5 52 38t35 80q2 8 20 8 20 0 20-8 0-1-4-15-8-29-22-57t-46-56-69-27q-47 0-68 27t-21 56q0 19 36 120t37 152q0 59-44 59h-5q-86 0-145-101l-7-12-33-134Q156 26 151 16q-13-27-43-27-13 0-21 6T76 7t-2 10q0 13 38 163t40 163q1 5 1 23 0 39-24 39-38 0-63-100-6-20-6-21-2-6-19-6H27q-6 6-6 9z"/><path id="d" stroke-width="1" d="M702 589q4 12 16 16h343q15-8 15-20 0-13-15-20H742V0q-8-14-18-14h-4q-12 0-18 14v589z"/><path id="f" stroke-width="1" d="M742-871l-5-5-4-4q-1-1-3-2t-6-2-10-1h-12L222 569l-42-85q-42-85-43-85-6 5-13 13l-13 13 154 311L702-586v754l1 754q10 13 19 13 12 0 20-15V-871z"/><path id="e" stroke-width="1" d="M722-14h-2q-12 0-18 14v306l1 306q10 13 19 13 12 0 20-15V0q-8-14-18-14h-2z"/><path id="m" stroke-width="1" d="M56 237v13l14 20h299v150l1 150q10 13 19 13 13 0 20-15V270h298q15-8 15-20t-15-20H409V-68q-8-14-18-14h-4q-12 0-18 14v298H70q-14 7-14 20z"/><path id="n" stroke-width="1" d="M78 250q0 24 17 42t43 18q24 0 42-16t19-43q0-25-17-43t-43-18-43 17-18 43zm447 0q0 24 17 42t43 18q24 0 42-16t19-43q0-25-17-43t-43-18-43 17-18 43zm447 0q0 24 17 42t43 18q24 0 42-16t19-43q0-25-17-43t-43-18-43 17-18 43z"/><path id="l" stroke-width="1" d="M983 1739q5 11 18 11 7 0 12-5t7-12q0-7-278-1489T460-1241q-2-9-21-9h-3q-12 0-12 2l-14 82q-15 83-43 246t-55 319L201 44 137-83l-26 26 76 153 77 151q1-1 105-604 101-601 104-606L727 384q252 1345 256 1355z"/></defs><g fill="currentColor" stroke="currentColor" stroke-width="0" transform="scale(1 -1)"><use xlink:href="#a"/><use x="1119" y="-213" transform="scale(.707)" xlink:href="#b"/><use x="1593" xlink:href="#c"/><g transform="translate(2650 3464)"><use y="-606" xlink:href="#d"/><use transform="matrix(1 0 0 2.83913 0 -2348.298)" xlink:href="#e"/><use y="-3277" xlink:href="#f"/></g><path stroke="none" d="M3706 3404h2997v60H3706z"/><g transform="translate(3826)"><path stroke="none" d="M0 220h2757v60H0z"/><g transform="translate(60 1672)"><use xlink:href="#g"/><g transform="matrix(.707 0 0 .707 147 -1090)"><use xlink:href="#h"/><use x="345" xlink:href="#c"/><use x="1124" xlink:href="#i"/></g><use x="721" y="1627" transform="scale(.707)" xlink:href="#b"/><g transform="translate(1611)"><use xlink:href="#j"/><use x="809" y="488" transform="scale(.707)" xlink:href="#k"/><use x="809" y="-430" transform="scale(.707)" xlink:href="#h"/></g></g><use x="1078" y="-686" xlink:href="#b"/></g><use x="6982" xlink:href="#c"/><g transform="translate(8038)"><use y="176" xlink:href="#l"/><path stroke="none" d="M1000 1867h8351v60H1000z"/><g transform="translate(1120)"><path stroke="none" d="M0 220h8111v60H0z"/><g transform="translate(60 782)"><use xlink:href="#j"/><use x="809" y="488" transform="scale(.707)" xlink:href="#k"/><use x="809" y="-435" transform="scale(.707)" xlink:href="#i"/><use x="1248" xlink:href="#m"/><g transform="translate(2249)"><use xlink:href="#j"/><use x="809" y="488" transform="scale(.707)" xlink:href="#k"/><use x="809" y="-435" transform="scale(.707)" xlink:href="#k"/></g><use x="3497" xlink:href="#m"/><use x="4498" xlink:href="#n"/><use x="5893" xlink:href="#m"/><g transform="translate(6894)"><use xlink:href="#j"/><use x="809" y="488" transform="scale(.707)" xlink:href="#k"/><use x="809" y="-212" transform="scale(.707)" xlink:href="#b"/></g></g><use x="3755" y="-686" xlink:href="#b"/></g></g></g></svg>